<svg width="716" height="172" viewBox="0 0 716 172" fill="none" xmlns="http://www.w3.org/2000/svg">
<path fill-rule="evenodd" clip-rule="evenodd" d="M537.407 12.6929C537.233 10.8433 536.69 9.04661 535.811 7.4076C534.932 5.76858 533.733 4.32004 532.285 3.14648C530.836 1.97291 529.167 1.09783 527.375 0.572211C525.583 0.0465927 523.704 -0.119045 521.847 0.085019C511.474 1.33445 502.038 6.67292 501.284 23.3017L501.156 25.8736L501.156 25.8864C500.984 29.3471 500.769 33.7097 500.553 37.9314C494.9 39.1852 490.137 39.7807 488.133 40.0312L487.849 40.0668C482 40.771 482.845 45.0418 488.375 44.383C492.716 43.8605 496.691 43.2244 500.324 42.5202C500.027 48.4266 499.799 53.1517 499.799 53.1517C499.182 64.5102 497.879 88.2948 497.514 93.9059C496.806 106.832 495.435 112.42 489.517 113.124C479.261 114.372 479.967 103.376 480.42 96.3229C480.439 96.0371 480.457 95.7577 480.473 95.4859C480.48 95.3821 480.486 95.2795 480.492 95.178C480.962 86.938 481.164 82.6998 481.306 79.7228C481.399 77.7754 481.467 76.3678 481.566 74.7328C481.932 68.5765 479.715 68.2131 473.112 69.0081C465.344 69.9622 462.214 73.3471 461.939 78.5038C461.78 81.408 461.69 83.1731 461.616 84.6187C461.531 86.2826 461.468 87.523 461.345 89.5896C461.069 93.5603 461.393 97.5498 462.305 101.425C459.792 110.08 453.714 117.327 446.174 118.236C436.532 119.417 432.306 108.763 431.186 97.9722C429.29 79.7986 438.04 52.5384 450.675 51.0391C452.777 50.7665 456.502 51.8115 456.89 54.9237C457.416 59.2853 458.101 64.8282 465.047 64.0104C471.01 63.2835 472.792 59.7169 472.312 55.6733C471.444 48.6083 458.992 45.4053 450.447 46.4275C424.263 49.6079 408.544 69.7123 411.788 96.2002C413.753 112.307 423.692 125.619 446.243 122.893C450.363 122.482 454.344 121.189 457.914 119.103C461.483 117.017 464.556 114.187 466.92 110.807C471.261 115.919 478.619 119.144 488.626 117.94C508.024 115.669 516.569 107.309 517.117 90.521C517.574 76.7546 519.128 51.4934 519.402 47.3589V47.3576C519.402 46.5176 519.402 45.7684 519.516 45.0872C519.516 45.0872 519.699 41.4753 519.951 36.6366C536.835 29.0491 538.092 18.781 537.407 12.6929ZM520.895 17.3306L520.896 17.3185L520.933 16.5775C521.459 6.94555 530.346 7.05911 531.123 13.3971C532.083 21.3253 527.125 26.9364 520.202 30.9119V30.8664C520.458 26.0333 520.714 20.943 520.895 17.3306ZM391.543 11.8308C392.44 11.7806 393.333 11.9817 394.121 12.4115C394.909 12.8412 395.559 13.4822 395.998 14.2615C397.424 16.6613 396.694 19.1564 395.867 21.9777C395.184 24.3109 394.436 26.8671 394.787 29.7771C395.564 36.206 400.819 42.8166 409.205 41.7944C412.592 41.389 415.685 39.6805 417.82 37.035C419.956 34.3895 420.964 31.0175 420.629 27.6417C418.801 12.6713 401.116 6.10612 391.429 7.19653C390.838 7.2865 390.306 7.60336 389.947 8.07905C389.588 8.55475 389.431 9.15135 389.51 9.74081C389.549 10.2706 389.774 10.7698 390.146 11.1517C390.517 11.5335 391.012 11.7738 391.543 11.8308ZM248.376 57.7131C246.632 59.6467 244.199 60.8292 241.593 61.0103C235.858 61.6009 231.768 58.2843 231.586 52.9912C231.403 47.6982 234.853 43.8818 240.953 43.1548C247.054 42.4279 250.732 45.2902 250.938 50.6514C251.039 53.2468 250.12 55.7796 248.376 57.7131ZM56.2965 102.108L44.5755 95.2924L44.28 95.0957L44.0645 94.9523L44.0408 94.9366L44.0393 94.9356C37.8234 90.8011 29.0934 84.9943 27.8279 74.5974C27.2693 69.6157 28.7214 64.6171 31.8655 60.6988C35.0097 56.7806 39.589 54.2627 44.5983 53.6978C48.7567 53.198 51.567 53.5161 52.9607 56.1285C54.377 58.7455 53.6413 61.2258 52.8204 63.993C52.1448 66.2703 51.4116 68.7419 51.7726 71.6441C52.5723 78.073 57.8045 84.6609 66.1897 83.6614C69.5765 83.245 72.6658 81.5302 74.7997 78.8825C76.9335 76.2347 77.9433 72.8631 77.6137 69.486C76.1286 57.4915 62.4655 47.019 44.2328 49.2226C19.8083 52.1758 9.13823 67.646 11.4002 86.0694C13.1724 100.632 24.1888 108.404 31.5605 113.606C32.4571 114.238 33.2998 114.833 34.0654 115.397L46.9974 123.711C54.72 128.05 61.6201 133.321 62.991 143.68C64.3619 154.038 56.822 165.465 42.6106 167.191H41.6053C40.9203 167.209 40.2695 167.492 39.7915 167.98C39.3135 168.468 39.0461 169.123 39.0463 169.804C39.1834 170.849 39.8917 172.076 42.3592 171.758C42.7397 171.78 43.1212 171.78 43.5016 171.758C65.39 169.122 84.4681 155.197 81.7949 133.298C79.5263 115.4 66.9264 108.196 58.4286 103.338L58.4282 103.337L58.4259 103.336L58.4229 103.334C57.6794 102.909 56.9674 102.502 56.2965 102.108ZM202.637 109.808L194.823 105.605C194.016 105.111 193.063 104.618 192.045 104.092C187.82 101.905 182.472 99.1372 181.754 93.3154C181.023 87.3635 186.917 82.9564 193.612 82.1386C199.415 81.4338 198.89 84.5492 198.336 87.8323C198.122 89.0992 197.904 90.3911 198.044 91.498C198.166 92.6456 198.526 93.7556 199.101 94.7578C199.677 95.7599 200.455 96.6324 201.387 97.32C202.319 98.0076 203.385 98.4953 204.516 98.7523C205.648 99.0093 206.821 99.0299 207.96 98.8129C209.01 98.7156 210.028 98.4076 210.954 97.9077C211.88 97.4078 212.695 96.7263 213.348 95.9045C214.002 95.0827 214.481 94.1376 214.757 93.1264C215.032 92.1152 215.099 91.0589 214.952 90.0214C214.061 82.6611 205.813 76.1641 193.703 77.4589C179.994 79.2536 169.279 88.9764 170.855 102.675C172.02 112.239 177.504 116.305 182.279 119.553L188.151 123.052C188.867 123.419 189.653 123.786 190.478 124.172C195.586 126.558 202.225 129.66 203.208 137.795C203.802 142.566 200.101 148.063 191.167 149.154C181.37 150.343 180.845 144.424 180.483 140.336L180.483 140.336C180.444 139.895 180.407 139.476 180.36 139.09C179.88 135.114 177.367 130.912 171.746 131.593C169.554 131.785 167.523 132.816 166.082 134.469C164.641 136.123 163.902 138.268 164.024 140.453C165.097 149.244 177.138 155.56 190.048 154.083C206.498 152.084 219.042 142.838 217.282 128.436C215.934 117.668 208.166 112.807 202.637 109.808ZM161.939 152.497C162.495 152.369 162.944 152.265 163.063 152.265C163.259 152.23 163.461 152.235 163.655 152.281C163.849 152.327 164.031 152.413 164.19 152.532C164.349 152.652 164.481 152.803 164.578 152.976C164.675 153.149 164.735 153.34 164.754 153.538C165.005 155.537 158.448 157.786 153.193 158.422C138.959 160.148 130.139 151.357 131.213 129.866C131.321 127.749 131.516 123.825 131.744 119.243L131.748 119.164C132.246 109.155 132.898 96.0528 133.132 91.7929C133.475 86.6134 136.788 84.319 144.556 83.3877C151.159 82.5698 152.987 83.683 152.622 89.8393C152.439 93.951 151.137 121.393 150.337 135.137C149.949 142.043 152.21 153.856 159.727 152.947C160.32 152.87 161.219 152.663 161.939 152.497ZM126.513 155.643C128.082 154.664 129.439 153.385 130.506 151.879C130.746 151.675 131.036 151.537 131.346 151.478C131.656 151.419 131.977 151.441 132.276 151.542C132.575 151.643 132.843 151.819 133.053 152.053C133.263 152.287 133.409 152.571 133.476 152.878C133.819 155.673 127.239 161.511 119.127 162.488C98.4729 164.986 90.339 150.788 91.1615 135.909C91.3728 132.239 91.6043 124.913 91.8231 117.992C92.0064 112.189 92.1808 106.671 92.3267 103.832C92.5981 98.5519 89.8766 99.2553 88.1522 99.701C87.844 99.7807 87.5676 99.8521 87.3459 99.8796C86.2492 100.016 85.6323 99.1982 85.4723 97.8806C85.1753 94.9728 94.383 89.4526 106.036 88.0441C112.523 87.2406 112.328 90.3186 111.951 96.2652L111.93 96.5857C111.849 98.0341 111.697 101.862 111.497 106.877L111.497 106.878C111.132 116.021 110.611 129.108 110.08 138.907C109.508 149.743 111.885 158.717 121.367 157.581C123.194 157.281 124.944 156.622 126.513 155.643ZM25.4721 162.307C27.2321 164.581 29.7246 166.185 32.5322 166.85C33.1256 166.986 33.6637 167.298 34.0756 167.744C34.4875 168.19 34.7539 168.749 34.8398 169.349C34.9769 170.394 34.2686 172.189 31.4583 171.984C14.2309 170.235 1.5274 160.149 0.110822 148.54C-0.114882 146.859 0.00496829 145.149 0.463081 143.515C0.921193 141.881 1.70806 140.356 2.77605 139.033C3.84405 137.71 5.17094 136.616 6.67645 135.817C8.18197 135.019 9.83477 134.533 11.5348 134.388C19.92 133.365 25.1751 140.09 25.952 146.405C26.2694 148.986 25.5756 151.157 24.9186 153.213C23.9679 156.188 23.0943 158.922 25.4721 162.307ZM259.221 140.761C259.775 140.628 260.223 140.521 260.352 140.521C260.558 140.464 260.776 140.452 260.987 140.487C261.199 140.523 261.401 140.604 261.577 140.725C261.754 140.847 261.902 141.005 262.01 141.19C262.118 141.375 262.183 141.581 262.202 141.793C262.454 143.792 255.896 146.041 250.641 146.677C240.405 147.927 227.108 144.565 228.502 118.145C228.502 118.145 229.69 93.3382 229.987 87.2501C230.238 82.0935 227.49 82.8038 225.755 83.2523L225.755 83.2523C225.441 83.3334 225.161 83.4058 224.937 83.4336C223.841 83.5472 223.224 82.7521 223.064 81.4345C222.652 78.5268 233.414 72.6658 243.627 71.4391C250.253 70.644 250.161 73.8016 249.796 79.9352C249.545 84.047 247.991 115.533 247.625 123.393C247.237 130.321 249.476 142.134 256.993 141.225C257.6 141.148 258.5 140.933 259.221 140.761ZM707.165 28.6646C707.586 28.3466 707.9 27.9098 708.068 27.4113C708.235 26.9129 708.247 26.3759 708.102 25.8705L707.828 23.5988C707.789 23.1851 707.666 22.7836 707.465 22.4192C707.265 22.0547 706.991 21.735 706.661 21.4796C706.332 21.2242 705.953 21.0386 705.549 20.9343C705.144 20.8299 704.722 20.809 704.309 20.8728L698.78 21.5543C698.695 21.5596 698.611 21.5826 698.535 21.6217C698.459 21.6608 698.392 21.7152 698.339 21.7814C698.285 21.8476 698.246 21.9242 698.223 22.0064C698.201 22.0885 698.196 22.1744 698.209 22.2585L700.014 37.1381C700.037 37.3091 700.126 37.4643 700.263 37.5705C700.4 37.6767 700.573 37.7253 700.745 37.706L701.682 37.5924C701.845 37.5646 701.992 37.4768 702.094 37.3464C702.195 37.216 702.244 37.0525 702.23 36.8882L701.431 30.3684L704.606 29.9822C705.909 29.8232 706.526 30.164 706.686 31.3453L707.28 36.2521C707.291 36.339 707.319 36.4227 707.363 36.4985C707.408 36.5743 707.467 36.6405 707.537 36.6934C707.607 36.7463 707.687 36.7847 707.772 36.8065C707.858 36.8282 707.946 36.8328 708.034 36.82H708.879C708.97 36.8063 709.056 36.7747 709.135 36.727C709.213 36.6793 709.28 36.6166 709.333 36.5424C709.387 36.4683 709.424 36.3843 709.445 36.2954C709.465 36.2065 709.466 36.1146 709.45 36.0249L708.879 31.368C708.742 30.0731 708.491 29.0508 707.165 28.6646ZM704.264 27.9604L701.179 28.3466L700.562 23.2808L703.784 22.8946C705.041 22.7356 705.68 23.1445 705.817 24.3939L706 25.7569C706.183 27.1199 705.68 27.8014 704.287 27.9604H704.264ZM667.227 48.4037L675.041 52.6063C680.571 55.605 688.407 60.4664 689.687 71.2342C691.446 85.5459 678.903 94.9052 662.452 96.9043C649.543 98.3582 637.502 92.0656 636.428 83.2741C636.296 81.0868 637.029 78.9347 638.473 77.2788C639.916 75.6228 641.955 74.5947 644.151 74.4146C649.772 73.7331 652.285 77.9584 652.765 81.9112C652.812 82.301 652.849 82.7247 652.889 83.1704C653.247 87.2442 653.769 93.1624 663.572 91.9748C672.505 90.8616 676.207 85.3641 675.613 80.6163C674.613 72.4864 668.025 69.3928 662.928 66.9989C662.086 66.6035 661.285 66.2271 660.556 65.8503L654.684 62.3746C649.909 59.1261 644.448 55.0598 643.26 45.4959C641.683 31.7976 652.399 22.0748 666.108 20.2802C678.103 18.9626 686.465 25.4596 687.356 32.8426C687.507 33.8794 687.442 34.9356 687.168 35.9468C686.893 36.958 686.414 37.9029 685.76 38.7237C685.105 39.5445 684.289 40.2239 683.362 40.7204C682.434 41.2169 681.414 41.5201 680.365 41.6114C679.224 41.8283 678.05 41.8078 676.917 41.551C675.784 41.2943 674.717 40.8069 673.783 40.1196C672.849 39.4323 672.069 38.5599 671.491 37.5577C670.913 36.5555 670.551 35.4451 670.426 34.2965C670.293 33.201 670.513 31.9205 670.729 30.6621C671.292 27.3798 671.83 24.2474 666.016 24.9371C659.299 25.7549 653.427 30.1847 654.158 36.1366C654.857 41.9478 660.198 44.7013 664.425 46.8805L664.426 46.8809L664.429 46.8827C665.455 47.4117 666.415 47.9068 667.227 48.4037ZM596.055 70.3026C592.651 70.7115 591.828 72.0518 591.988 73.3013C592.217 75.1186 594.273 75.7093 601.128 74.8914C624.387 72.0745 636.245 60.7615 634.189 43.951C632.932 33.7739 622.993 25.6185 608.393 27.3904C578.325 31.0478 566.581 53.901 569.415 77.1404C571.402 93.2467 580.976 106.672 603.687 103.878C619.68 101.947 629.208 91.2931 628.934 88.9987C629.299 86.727 625.369 84.3417 623.61 86.0454C623.166 86.4619 622.601 87.1234 621.908 87.9341C618.822 91.5451 613.208 98.1142 604.532 99.1531C578.668 102.288 587.784 34.4326 607.982 31.9792C621.074 30.389 620.708 67.3267 596.055 70.3026ZM712.725 21.4438C714.276 23.2309 715.259 25.4355 715.549 27.7784C715.937 30.9103 715.061 34.0675 713.113 36.5583C711.164 39.0492 708.302 40.6707 705.154 41.0678C702.798 41.3649 700.407 40.9602 698.283 39.9052C696.159 38.8501 694.398 37.1921 693.223 35.1411C692.047 33.0901 691.51 30.7384 691.68 28.3837C691.85 26.0291 692.718 23.7775 694.176 21.9141C695.634 20.0508 697.615 18.6594 699.868 17.9162C702.122 17.1731 704.546 17.1116 706.835 17.7395C709.124 18.3675 711.174 19.6567 712.725 21.4438ZM698.767 38.7309C700.654 39.6787 702.781 40.0493 704.88 39.7957C706.277 39.6299 707.627 39.191 708.852 38.5044C710.078 37.8178 711.155 36.8969 712.022 35.7947C712.888 34.6926 713.527 33.431 713.901 32.0825C714.275 30.7341 714.377 29.3253 714.201 27.9374C713.942 25.8515 713.067 23.8889 711.686 22.2974C710.305 20.706 708.481 19.5571 706.444 18.9961C704.407 18.435 702.248 18.4869 700.24 19.1452C698.233 19.8036 696.467 21.0388 695.165 22.6947C693.863 24.3507 693.084 26.3531 692.927 28.4491C692.769 30.545 693.24 32.6404 694.279 34.4704C695.319 36.3004 696.881 37.7831 698.767 38.7309ZM570.079 101.471C552.395 102.402 543.347 78.186 543.347 78.186C543.347 78.186 564.093 69.0992 561.808 50.4032C561.191 45.3601 555.776 33.7971 542.525 35.41C530.918 36.7958 521.482 48.8585 521.779 51.3119C521.799 51.543 521.869 51.7672 521.984 51.9694C522.098 52.1717 522.255 52.3474 522.443 52.485C522.631 52.6225 522.846 52.7186 523.074 52.767C523.302 52.8155 523.539 52.815 523.767 52.7658C525.133 52.5972 526.707 51.2853 528.393 49.8793C530.343 48.2535 532.443 46.5018 534.551 46.246C538.481 45.769 541.565 49.0856 542.159 54.0152C543.827 67.509 530.05 73.9834 523.881 75.5281C520.042 76.5276 521.413 79.4808 522.67 81.5026C523.355 82.6054 524.707 84.6137 526.283 86.9563L526.285 86.9592L526.29 86.9664L526.295 86.974C527.606 88.9219 529.071 91.0995 530.438 93.1791C541.199 109.535 552.121 110.262 561.488 109.081C570.079 108.127 576.659 101.107 570.079 101.471ZM401.785 111.876C402.831 110.476 403.716 109.29 404.522 108.513C407.218 105.923 410.691 109.354 410.851 110.762C411.285 114.283 399.77 128.663 380.166 130.935C350.807 134.479 336.047 113.034 332.917 87.4546C329.489 59.4673 347.379 15.76 382.885 8.2861C383.203 8.17136 383.542 8.12818 383.879 8.15968C384.216 8.19118 384.541 8.29661 384.832 8.46829C385.122 8.63997 385.371 8.87363 385.56 9.15247C385.749 9.43132 385.873 9.74838 385.924 10.0808C385.986 10.6722 385.843 11.2669 385.519 11.7667C385.195 12.2664 384.709 12.6414 384.142 12.8295L382.931 13.3974C354.12 26.2779 344.729 130.548 380.349 126.232C392.128 124.808 398.003 116.941 401.785 111.876ZM282.193 110.807C282.033 109.535 282.833 108.218 286.26 107.809C310.913 104.833 311.278 67.827 298.095 69.4853C277.875 71.9387 268.781 139.794 294.622 136.659C303.323 135.601 308.941 129.037 312.027 125.432C312.717 124.625 313.28 123.967 313.723 123.552C315.483 121.848 319.412 124.233 319.047 126.505C319.321 128.799 309.771 139.453 293.777 141.384C271.043 144.179 261.47 130.753 259.505 114.647C256.649 91.4071 268.393 68.5539 298.484 64.8965C313.083 63.1473 323.022 71.28 324.256 81.4571C326.335 98.2904 314.454 109.581 291.218 112.375C284.478 113.215 282.399 112.602 282.193 110.807Z" fill="#FF3A54"/>
</svg>
